PathFileType	4	(X/Y/Z)	c:/Users/goper/Files/vsCode/490R/osim_files/C11/C11_Slow_05.trc
DataRate	CameraRate	NumFrames	NumMarkers	Units                	OrigDataRate	OrigDataStartFrame	OrigNumFrames
120.00	120.00	8	36	mm	120.0	586	1562
                Frame#	Time	LPSIS			LASIS			LTH1			LTH2			LTH3			LTH4			LLFE			LMFE			LSH1			LSH2			LSH3			LSH4			LLMAL			LMMAL			LCAL			LMTP5			LTOE			LMTP1			RPSIS			RASIS			RTH1			RTH2			RTH3			RTH4			RLFE			RMFE			RSH1			RSH2			RSH3			RSH4			RLMAL			RMMAL			RCAL			RMTP1			RTOE			RMTP5		
		X1	Y1	Z1	X2	Y2	Z2	X3	Y3	Z3	X4	Y4	Z4	X5	Y5	Z5	X6	Y6	Z6	X7	Y7	Z7	X8	Y8	Z8	X9	Y9	Z9	X10	Y10	Z10	X11	Y11	Z11	X12	Y12	Z12	X13	Y13	Z13	X14	Y14	Z14	X15	Y15	Z15	X16	Y16	Z16	X17	Y17	Z17	X18	Y18	Z18	X19	Y19	Z19	X20	Y20	Z20	X21	Y21	Z21	X22	Y22	Z22	X23	Y23	Z23	X24	Y24	Z24	X25	Y25	Z25	X26	Y26	Z26	X27	Y27	Z27	X28	Y28	Z28	X29	Y29	Z29	X30	Y30	Z30	X31	Y31	Z31	X32	Y32	Z32	X33	Y33	Z33	X34	Y34	Z34	X35	Y35	Z35	X36	Y36	Z36

586	4.87500	1119.66064	972.53101	222.48039	949.31067	973.57367	307.26285	1126.27429	608.32275	328.05811	1130.57227	560.51184	326.63965	1069.90369	595.79071	346.08411	1081.77710	551.23792	339.03018	0.00000	0.00000	0.00000	1127.26147	484.72583	328.03314	1215.94226	406.35107	327.95270	1233.13281	364.44485	324.71024	1160.98022	375.99933	333.44983	1190.84766	337.74689	327.05017	1322.23340	111.47406	247.24071	1286.13232	127.75439	156.11240	1381.06873	86.99749	187.02231	1223.82361	40.35398	279.21844	1146.92188	54.55166	215.18930	1183.58459	45.60743	167.91667	1109.88428	982.04071	140.18922	939.60944	961.43115	74.18954	892.82605	609.51117	40.67331	871.24054	572.25824	49.52771	834.90723	635.08490	51.05677	822.99280	593.19879	56.94601	817.13824	509.92627	69.05222	834.68958	486.88489	180.39012	848.19824	387.65042	55.13612	829.47089	344.66766	59.27922	787.99115	405.03888	59.48362	778.86877	358.80945	60.26117	724.29010	97.84369	108.84478	699.53223	123.28674	200.49252	765.76086	45.22470	169.51414	561.26147	113.42770	176.46054	565.67743	123.34661	126.87894	593.26947	77.34636	73.00704
587	4.88333	1109.36255	972.06372	221.47449	939.34686	972.67651	307.47055	1117.80127	608.07678	327.37607	1122.40173	560.25610	326.07959	1061.87988	595.01709	346.06821	1073.63831	550.56964	338.92981	0.00000	0.00000	0.00000	1119.76819	484.48618	327.64456	1208.81543	407.49097	328.00418	1226.49561	365.79599	324.75201	1154.99133	376.16721	333.61652	1183.54980	338.40314	327.10086	1320.34766	113.85831	248.09465	1284.01404	129.98079	156.92564	1379.72644	90.93495	187.68430	1223.25903	40.40234	279.28442	1146.53223	54.45324	215.32812	1183.22412	46.01102	167.26245	1099.46497	981.72144	139.19536	928.76245	961.15778	74.74547	881.83942	609.72296	42.06676	861.25311	572.30707	50.73647	824.47070	634.83984	52.97933	812.85724	592.85376	58.96468	807.94434	509.49072	70.54393	825.83350	485.75424	182.11736	840.48486	387.06250	57.07393	822.80542	344.68680	60.61269	780.09302	404.05466	61.25661	771.30554	357.91815	62.22620	719.08118	99.25294	110.40952	693.80615	122.15092	203.64929	762.46088	47.19091	170.39322	556.57361	109.70965	179.23770	560.08240	121.11674	129.73538	589.16058	75.90302	75.44792
588	4.89167	1098.83545	971.66589	220.50421	929.49286	971.98895	307.08408	1108.64429	607.54425	326.98450	1112.91785	559.63287	325.62985	1052.94275	594.44025	345.98590	1064.37134	549.91852	338.80005	0.00000	0.00000	0.00000	1110.56763	484.05957	327.26703	1201.39001	408.84921	327.96808	1220.11169	367.74316	324.61154	1147.42163	376.40607	333.33981	1174.33240	339.70410	327.48416	1318.71924	116.93401	248.96436	1281.74060	132.60396	157.84271	1378.12415	94.87207	188.40640	1222.94629	40.49059	279.34775	1145.98352	54.36316	215.49826	1182.97839	46.17427	167.54524	1088.91113	981.56183	138.26917	917.96069	961.07031	74.91597	872.39087	610.00049	42.57249	851.76324	572.33350	51.52547	814.39178	634.62415	55.36407	803.38922	592.53650	60.59481	799.57684	508.94263	71.23851	819.12457	484.68561	182.63609	831.83069	386.74493	58.93837	814.17303	344.35306	62.38686	771.40112	403.70013	62.64297	761.75574	356.63217	64.82217	713.02930	99.90716	112.20422	687.53503	119.96577	207.32301	759.26990	49.14277	171.42471	550.88440	103.17941	183.72742	553.39941	115.58052	133.31616	584.72369	72.87003	78.21108
589	4.90000	1088.23926	971.32239	219.70824	918.52496	971.85437	307.65237	1098.33740	606.64264	326.82147	1103.58801	559.22510	325.26419	1042.84619	593.74396	345.90891	1054.92627	549.54840	338.84625	0.00000	0.00000	0.00000	1102.24438	484.19937	326.82770	1193.51501	410.36008	328.01166	1212.78528	369.67877	324.70593	1140.21606	377.15710	333.48883	1168.33252	341.14465	327.73187	1316.33398	119.69300	250.02263	1279.18738	135.38324	158.84073	1376.22510	100.07656	189.33133	1222.56860	40.67200	279.44327	1145.72205	54.22373	215.57675	1182.41675	46.37657	167.98058	1078.31555	981.64502	137.58258	907.22766	961.23114	74.92333	862.55383	610.05261	43.19731	842.46332	572.28925	51.81003	804.78400	634.27417	56.77008	794.01581	592.17596	61.83387	791.06439	508.34232	71.81416	812.70892	483.82864	183.11580	821.98553	386.86505	59.32042	804.31274	344.44824	62.75594	761.66266	403.76901	64.13387	751.92706	356.56128	66.22778	707.54974	99.49834	113.82804	682.44177	117.27499	210.12874	757.12067	50.54337	172.13460	545.89716	95.04385	187.89964	547.68738	107.91389	137.65562	580.93359	68.12177	81.34046
590	4.90833	1077.61780	971.17804	219.16252	907.92694	971.52106	307.58130	1089.21350	606.80853	326.34421	1093.57678	558.80292	324.93469	1033.46802	593.33606	345.81033	1045.12354	549.12402	338.74545	0.00000	0.00000	0.00000	1092.20471	484.18039	326.45993	1184.30237	411.28885	328.08731	1204.94116	372.04227	325.21817	1132.51160	377.86295	333.69232	1160.23267	342.97607	329.79092	1313.62305	122.87437	251.16399	1276.06799	138.43953	160.04738	1373.90186	105.35945	190.17880	1222.01807	40.96460	279.75317	1145.36755	54.02747	215.74191	1181.81079	46.56295	168.50092	1067.46875	981.81866	137.19525	896.26044	961.62665	74.72844	852.66431	610.00055	43.36198	832.85382	572.24725	51.92908	795.52722	634.34412	57.71178	785.12427	592.25092	62.09022	781.75714	507.99622	72.68151	807.61920	483.11734	182.45941	811.49829	387.15558	58.39235	794.23810	344.63031	61.91832	751.18036	403.61002	66.15514	741.79211	356.60269	67.74966	703.06750	98.35602	114.77358	679.11932	114.97810	211.80907	755.50226	51.31581	172.12456	544.04614	87.19987	192.09355	543.34589	101.08178	141.73984	577.15643	62.65046	84.66275
591	4.91667	1066.65698	971.08325	218.95695	897.15143	971.59259	307.31769	1078.54834	606.33527	326.00385	1083.07837	558.39563	324.61447	1022.90063	592.81281	345.77316	1034.84265	548.35266	338.44739	0.00000	0.00000	0.00000	1082.23047	484.27530	326.14716	1176.42065	414.01709	328.22675	1197.29114	374.57562	325.31946	1124.35071	378.67377	333.94626	1153.48608	344.38065	330.12891	1310.79846	126.55064	252.33115	1272.53601	141.74899	161.32524	1371.12817	111.11263	191.05627	1221.50171	41.26816	279.94540	1144.97107	53.94716	215.90759	1181.02417	46.94189	168.83131	1056.65430	982.15625	136.99974	885.46588	962.04034	74.60266	842.21887	610.09631	43.51488	822.56354	572.32678	52.35278	785.22644	634.34589	58.80883	775.09204	592.39166	63.38199	771.40765	508.03058	73.89267	800.72546	483.18881	182.98215	801.41010	387.22037	57.29360	784.45490	344.54874	60.98350	741.90778	403.67163	66.08849	732.86292	357.06140	67.71365	699.31061	97.32374	115.22607	676.72009	113.43222	213.00037	754.43195	52.39323	171.42020	542.24054	82.11002	196.00700	540.03809	95.90899	145.56148	573.53632	58.36137	87.46532
592	4.92500	1055.12146	970.84570	218.98593	888.12848	970.37714	306.40353	1067.09973	605.47675	325.75537	1072.07874	557.97076	324.26099	1011.63440	592.26105	345.66977	1023.23334	547.75323	338.25876	0.00000	0.00000	0.00000	1071.45117	484.46429	325.59747	1166.50000	415.67557	328.39401	1188.51672	377.07281	325.51187	1116.27258	379.95312	334.43073	1145.10767	346.25131	330.71664	1307.72937	130.89957	252.90071	1268.55457	145.40250	162.73238	1367.87476	117.49439	192.05389	1221.06665	41.67517	279.97275	1144.51782	53.95297	216.04031	1180.57947	47.10597	169.29932	1045.69128	982.53033	136.90726	874.42181	962.42346	74.25771	831.26367	610.50592	43.83734	812.22870	572.94122	52.63731	774.41571	634.69116	60.20891	764.49438	592.54443	64.65671	760.98065	508.14819	75.17792	792.84656	483.34491	183.45049	791.88403	386.87195	56.63276	775.46667	344.14313	60.52075	732.95789	403.22522	66.33804	723.80267	355.90591	68.88416	695.68170	96.52863	115.80128	674.20941	111.93172	214.35146	752.58167	53.12832	171.29176	540.21759	77.20547	199.26559	536.83557	91.24923	148.99681	570.47870	55.08304	90.44131
593	4.93333	1044.24731	971.11786	218.88705	875.06238	971.38434	306.07138	1055.04004	604.62506	325.35995	1059.60852	556.84149	323.97693	999.19153	591.51398	345.54968	1011.17969	547.00916	338.21396	0.00000	0.00000	0.00000	1059.79688	484.48853	325.25562	1156.67029	418.22876	328.34634	1179.23206	379.80460	325.54544	1106.68494	381.10196	334.84506	1136.33044	348.04025	331.25217	1303.08887	134.62927	254.37332	1263.72729	149.11534	164.45265	1364.00525	124.26701	193.26901	1220.30090	42.12990	280.23969	1143.95642	54.09362	216.19737	1179.63525	47.37504	169.36617	1034.88025	982.95447	136.70761	863.48346	962.91095	74.07675	820.17365	611.30048	44.25472	800.95355	573.50122	53.44035	763.28412	635.25226	62.12197	753.82458	593.25110	66.31052	751.07812	508.05750	76.14209	784.73254	482.98810	183.74658	782.84802	386.21429	56.47678	767.50201	343.76822	60.46058	723.09790	401.31650	69.80910	716.23383	355.29990	69.09883	692.30670	95.77689	116.45794	671.26434	110.38773	215.34103	751.07532	54.13248	171.25046	538.22229	71.74901	201.37663	533.89398	86.03343	151.24567	568.08978	51.32892	92.40453
